<svg width="30" height="25" viewBox="0 0 51 44" fill="none" xmlns="http://www.w3.org/2000/svg"><g filter="url(#filter0_d_120_4)"><path d="M49.9801 21.0681C45.0452 7.21677 18.418 6.19689 10.9534 6.18662C10.218 6.18561 9.89454 7.06271 10.4251 7.57195L47.415 43.0743C47.8598 43.5011 48.5881 43.3171 48.7532 42.7231C49.787 39.0036 52.4507 28.0027 49.9801 21.0681Z" fill="#ACE075"></path></g><g filter="url(#filter1_d_120_4)"><path d="M33.5898 34.9431C29.6569 36.0338 17.7807 38.8083 11.5237 34.5593C3.27809 28.96 3.99901 14.4272 1.32316 4.01473C1.0959 3.13038 2.35824 2.33581 3.00696 2.97837L33.921 33.5984C34.3639 34.0371 34.1905 34.7765 33.5898 34.9431Z" fill="#3EB751"></path></g><defs><filter id="filter0_d_120_4" x="10.1627" y="6.18661" width="40.8373" height="37.6065" filterUnits="userSpaceOnUse" color-interpolation-filters="sRGB"><feFlood flood-opacity="0" result="BackgroundImageFix"></feFlood><feColorMatrix in="SourceAlpha" type="matrix" values="0 0 0 0 0 0 0 0 0 0 0 0 0 0 0 0 0 0 127 0" result="hardAlpha"></feColorMatrix><feOffset dy="0.485723"></feOffset><feComposite in2="hardAlpha" operator="out"></feComposite><feColorMatrix type="matrix" values="0 0 0 0 0.302394 0 0 0 0 0.470833 0 0 0 0 0.16283 0 0 0 1 0"></feColorMatrix><feBlend mode="normal" in2="BackgroundImageFix" result="effect1_dropShadow_120_4"></feBlend><feBlend mode="normal" in="SourceGraphic" in2="effect1_dropShadow_120_4" result="shape"></feBlend></filter><filter id="filter1_d_120_4" x="1.29614" y="2.74481" width="32.8732" height="34.5851" filterUnits="userSpaceOnUse" color-interpolation-filters="sRGB"><feFlood flood-opacity="0" result="BackgroundImageFix"></feFlood><feColorMatrix in="SourceAlpha" type="matrix" values="0 0 0 0 0 0 0 0 0 0 0 0 0 0 0 0 0 0 127 0" result="hardAlpha"></feColorMatrix><feOffset dy="0.485723"></feOffset><feComposite in2="hardAlpha" operator="out"></feComposite><feColorMatrix type="matrix" values="0 0 0 0 0.053125 0 0 0 0 0.354167 0 0 0 0 0.100076 0 0 0 1 0"></feColorMatrix><feBlend mode="normal" in2="BackgroundImageFix" result="effect1_dropShadow_120_4"></feBlend><feBlend mode="normal" in="SourceGraphic" in2="effect1_dropShadow_120_4" result="shape"></feBlend></filter></defs></svg>